<?xml version="1.0" encoding="UTF-8" ?>
<!DOCTYPE svg PUBLIC "-//W3C//DTD SVG 1.1//EN" "http://www.w3.org/Graphics/SVG/1.1/DTD/svg11.dtd">
<svg width="1000pt" height="1000pt" viewBox="0 0 1000 1000" version="1.1" xmlns="http://www.w3.org/2000/svg">
<g id="#ffffffff">
<path fill="#ffffff" opacity="1.00" d=" M 501.84 50.90 C 511.30 49.35 520.87 48.26 530.14 45.76 C 534.99 45.06 539.82 46.81 544.12 48.91 C 551.83 52.81 557.27 59.75 562.49 66.41 C 607.39 122.06 652.95 177.18 698.28 232.48 C 699.57 234.16 700.19 236.21 701.02 238.15 C 701.82 241.36 701.87 244.73 701.11 247.96 C 699.09 251.78 695.20 254.09 691.08 255.01 C 680.09 257.28 669.04 259.31 657.94 260.96 C 655.96 261.40 653.95 261.62 651.96 261.93 C 649.96 262.37 647.93 262.60 645.92 262.92 C 643.64 263.43 641.29 263.57 639.03 264.13 C 619.96 266.85 600.99 270.28 581.91 272.94 C 577.34 273.85 572.69 274.27 568.13 275.16 C 566.09 275.41 564.04 275.60 562.06 276.10 C 556.71 276.93 551.26 276.92 545.90 276.17 C 544.58 275.76 543.21 275.46 541.88 275.17 C 534.19 272.72 527.20 268.06 522.18 261.72 C 497.78 232.11 474.04 201.97 450.00 172.06 C 426.30 142.47 402.88 112.64 379.03 83.18 C 377.95 81.59 377.39 79.74 376.68 77.98 C 377.48 75.28 379.22 72.94 381.82 71.75 C 386.55 69.33 391.96 68.89 397.12 68.06 C 399.09 67.61 401.10 67.37 403.10 67.03 C 405.08 66.62 407.09 66.40 409.10 66.12 C 415.36 64.95 421.69 64.22 427.93 62.96 C 448.60 59.75 469.22 56.17 489.87 52.86 C 491.87 52.58 493.89 52.35 495.88 51.91 C 497.86 51.61 499.88 51.38 501.84 50.90 Z" />
<path fill="#ffffff" opacity="1.00" d=" M 318.49 111.42 C 323.28 104.41 329.55 97.36 338.16 95.40 C 344.54 93.99 350.68 97.68 354.59 102.47 C 365.31 115.48 375.52 128.91 385.79 142.28 C 419.87 183.86 453.93 225.46 488.03 267.02 C 490.77 270.53 493.85 273.78 496.26 277.55 C 499.53 282.84 501.55 288.90 502.00 295.11 C 502.30 297.35 502.31 299.63 501.97 301.87 C 500.78 318.17 489.51 330.84 481.03 343.96 C 412.88 444.09 344.28 543.90 275.81 643.81 C 270.45 651.42 265.49 659.32 259.82 666.71 C 254.32 673.30 246.27 679.39 237.19 678.17 C 229.71 677.01 224.07 671.23 219.85 665.35 C 197.05 632.29 173.47 599.79 150.04 567.18 C 133.27 544.17 116.79 520.94 99.84 498.07 C 93.53 491.38 93.56 481.49 94.86 472.96 C 95.65 470.36 96.29 467.72 97.14 465.14 C 102.37 450.51 111.84 437.99 119.76 424.77 C 185.75 320.16 252.15 215.80 318.49 111.42 Z" />
<path fill="#ffffff" opacity="1.00" d=" M 664.89 295.96 C 672.03 295.06 679.69 291.91 686.63 295.29 C 690.59 297.19 689.97 302.35 689.02 305.87 C 687.15 310.97 684.24 315.58 680.92 319.86 C 649.30 362.46 617.70 405.09 586.39 447.93 C 583.55 446.55 580.85 444.91 578.04 443.48 C 577.77 443.44 577.24 443.34 576.98 443.29 C 575.70 442.70 574.39 442.18 573.12 441.64 C 572.56 441.55 571.46 441.36 570.91 441.27 C 558.60 437.73 545.31 438.97 533.29 443.06 C 532.20 443.45 531.12 443.85 530.07 444.31 C 528.66 444.83 527.26 445.36 525.86 445.90 C 525.19 446.19 524.54 446.48 523.89 446.77 C 522.97 447.24 522.05 447.70 521.15 448.18 C 518.90 449.23 516.73 450.45 514.57 451.66 C 510.67 454.06 506.86 456.59 503.14 459.25 C 501.82 460.26 500.52 461.30 499.17 462.26 C 488.91 470.58 479.22 479.82 471.78 490.81 C 471.28 491.63 470.77 492.45 470.27 493.29 C 469.53 494.51 468.80 495.75 468.09 497.00 C 467.57 497.96 467.05 498.92 466.54 499.88 C 465.65 501.86 464.83 503.86 464.03 505.87 C 463.66 506.88 463.28 507.90 462.89 508.91 C 462.56 510.26 462.29 511.66 461.68 512.94 C 461.45 514.64 461.30 516.34 461.10 518.05 C 459.63 522.89 460.83 527.99 460.85 532.93 C 461.42 534.24 461.59 535.68 461.82 537.10 C 462.15 538.14 462.46 539.19 462.74 540.27 C 463.20 541.48 463.65 542.72 464.13 543.94 C 466.72 550.46 470.63 556.41 475.40 561.55 C 480.44 567.95 485.72 574.17 490.56 580.73 C 483.37 590.53 476.57 600.60 469.98 610.80 C 461.54 625.11 452.57 640.58 437.18 648.35 C 424.80 651.73 412.49 655.41 400.24 659.25 C 399.66 659.38 398.49 659.66 397.91 659.79 C 387.91 662.87 377.90 665.92 367.89 668.93 C 366.86 669.26 365.83 669.58 364.81 669.91 C 363.79 670.21 362.77 670.50 361.75 670.78 C 359.22 671.58 356.67 672.31 354.13 673.06 C 353.11 673.36 352.10 673.67 351.09 673.99 C 342.17 676.75 333.23 679.47 324.31 682.24 C 323.27 682.54 322.24 682.86 321.22 683.20 C 320.19 683.47 319.17 683.75 318.16 684.08 C 317.12 684.38 316.09 684.69 315.06 685.02 C 307.30 687.10 299.72 691.28 291.47 690.34 C 288.85 689.95 288.28 686.97 288.91 684.82 C 290.87 678.02 295.41 672.43 299.48 666.79 C 374.23 558.43 449.06 450.13 523.77 341.75 C 533.26 325.48 550.32 313.62 569.01 310.94 C 571.04 310.59 573.09 310.40 575.14 310.15 C 577.70 309.55 580.34 309.50 582.90 308.86 C 585.22 308.58 587.58 308.43 589.88 307.93 C 602.98 306.15 616.03 304.03 629.10 302.01 C 635.10 300.95 641.12 300.08 647.14 299.12 C 649.36 298.57 651.66 298.42 653.89 297.90 C 655.87 297.58 657.87 297.34 659.83 296.86 C 661.51 296.58 663.21 296.34 664.89 295.96 Z" />
<path fill="#ffffff" opacity="1.00" d=" M 535.19 460.25 C 540.75 458.45 546.55 457.31 552.41 457.18 L 552.37 456.58 C 553.46 456.59 555.64 456.60 556.74 456.61 L 556.46 457.20 C 560.42 457.28 564.30 458.05 568.16 458.86 C 570.81 459.74 573.45 460.66 576.06 461.65 C 579.29 463.29 582.79 464.82 585.03 467.82 C 629.56 523.99 674.12 580.12 718.67 636.27 C 774.73 706.13 831.31 775.56 887.62 845.22 C 892.37 851.26 897.84 856.83 901.21 863.83 C 905.12 872.38 907.58 882.01 905.83 891.42 C 905.08 896.55 903.28 901.44 901.23 906.17 C 893.10 922.00 879.31 934.16 864.44 943.53 C 860.22 946.17 855.72 948.31 851.15 950.27 C 848.17 951.29 845.15 952.19 842.14 953.10 C 838.30 953.89 834.45 954.68 830.52 954.80 L 830.67 955.40 C 828.54 955.35 826.43 955.34 824.33 955.39 L 824.55 954.78 C 820.91 954.63 817.37 953.88 813.83 953.14 C 807.35 950.96 800.03 948.88 795.91 942.99 C 771.03 911.56 746.11 880.16 721.18 848.75 C 687.26 805.98 653.39 763.16 619.00 720.77 C 575.68 667.29 532.38 613.80 489.04 560.35 C 485.74 556.64 482.90 552.54 480.66 548.11 C 480.20 547.03 479.73 545.97 479.28 544.91 C 474.18 533.14 474.51 519.52 479.76 507.87 C 480.00 507.36 480.47 506.33 480.70 505.82 C 487.91 491.44 500.08 480.24 513.16 471.21 C 518.68 467.43 524.60 464.25 530.80 461.70 C 532.25 461.22 533.72 460.72 535.19 460.25 M 485.38 532.07 C 483.84 538.49 488.91 543.77 492.44 548.51 C 596.39 677.24 700.33 805.99 804.34 934.68 C 814.63 943.64 830.45 947.00 843.01 940.92 C 847.28 938.81 851.04 935.84 855.06 933.31 C 843.89 932.77 832.31 931.06 822.41 925.55 C 817.03 922.69 813.95 917.27 810.19 912.74 C 785.96 882.70 761.45 852.90 737.00 823.04 C 656.47 724.92 575.75 626.96 494.99 529.02 C 491.70 529.01 487.39 528.96 485.38 532.07 Z" />
</g>
</svg>
